/* XPM */
static char * close_prelight_xpm[] = {
"31 21 116 2",
"  	c None",
". 	c #FE5D5D",
"+ 	c #FF5D5E",
"@ 	c #FE5E5D",
"# 	c #FE5E5E",
"$ 	c #FE5D5E",
"% 	c #FF5E5E",
"& 	c #FF5E5D",
"* 	c #FC5959",
"= 	c #FC5859",
"- 	c #FD5859",
"; 	c #FD5959",
"> 	c #FC5958",
", 	c #FD5958",
"' 	c #FB5454",
") 	c #FA5454",
"! 	c #FB5453",
"~ 	c #FB5354",
"{ 	c #FB5353",
"] 	c #FA4F4F",
"^ 	c #F94F4F",
"/ 	c #F94E4F",
"( 	c #F84B4A",
"_ 	c #F74A4A",
": 	c #F84A4A",
"< 	c #F84A4B",
"[ 	c #F64546",
"} 	c #F64645",
"| 	c #F64545",
"1 	c #F64646",
"2 	c #F74546",
"3 	c #F74646",
"4 	c #F54040",
"5 	c #F44141",
"6 	c #F44041",
"7 	c #F44040",
"8 	c #F54141",
"9 	c #F44140",
"0 	c #F54041",
"a 	c #F33B3C",
"b 	c #F33B3B",
"c 	c #F33C3C",
"d 	c #F33C3B",
"e 	c #F23B3C",
"f 	c #F23B3B",
"g 	c #F13637",
"h 	c #F23637",
"i 	c #F13737",
"j 	c #F23736",
"k 	c #F23737",
"l 	c #F13736",
"m 	c #F23636",
"n 	c #F13636",
"o 	c #F03232",
"p 	c #F03231",
"q 	c #EF3132",
"r 	c #EF3231",
"s 	c #F03132",
"t 	c #EF3232",
"u 	c #F03131",
"v 	c #EF3131",
"w 	c #EE2D2D",
"x 	c #EE2C2D",
"y 	c #EC2828",
"z 	c #EC2928",
"A 	c #ED2828",
"B 	c #EC2829",
"C 	c #ED2829",
"D 	c #EB2324",
"E 	c #EB2423",
"F 	c #EB2424",
"G 	c #EA2323",
"H 	c #EB2323",
"I 	c #EA2424",
"J 	c #EA2423",
"K 	c #E91E1E",
"L 	c #E91F1F",
"M 	c #E91F1E",
"N 	c #E91E1F",
"O 	c #EA1E1E",
"P 	c #EA1E1F",
"Q 	c #E81A1A",
"R 	c #E7191A",
"S 	c #E81A19",
"T 	c #E71919",
"U 	c #E8191A",
"V 	c #E81919",
"W 	c #E71A1A",
"X 	c #E71A19",
"Y 	c #E61415",
"Z 	c #E61514",
"` 	c #E51414",
" .	c #E61515",
"..	c #E61414",
"+.	c #E51514",
"@.	c #E51515",
"#.	c #E41111",
"$.	c #E51111",
"%.	c #E30C0C",
"&.	c #E30C0D",
"*.	c #E30D0C",
"=.	c #E30D0D",
"-.	c #E10708",
";.	c #E10707",
">.	c #E20707",
",.	c #E20807",
"'.	c #E20808",
").	c #E20708",
"!.	c #E00203",
"~.	c #E00302",
"{.	c #DF0202",
"].	c #E00202",
"^.	c #DF0303",
"/.	c #DF0302",
"(.	c #E00303",
"_.	c #DF0203",
"                                                              ",
"      . + @ # # . . # . # $ $ @ . % % & @ # & # # . #         ",
"    * = - ; ; - - * = > ; ; > * * ; * , - ; * ; * ; , =       ",
"  ' ' ) ' ! ' ! ' ' ' ~ ' ' ! ' ~ ! ~ ' ' { ' ' ' ' ' ' !     ",
"  ] ] ^ ^ ] ] ^ ^ ^ ] / ^ ^ ^ ^ ] ^ ^ ] ^ ^ ] ^ ] ] ] ] ]     ",
"  ( _ : _ : : : : _ < < _ : _ _ _ : < ( ( _ _ : : _ < ( _     ",
"  [ } | | | } | 1 2 [ | } [ [ [ | | | } 1 | | | 1 | | | 3     ",
"  4 5 6 7 8 5 8 5 5 5 6 6 7 9 7 7 9 4 6 8 6 9 8 6 9 0 5 0     ",
"  a b c c d c a a d d b c e a c f b d b c a a b c c a c d     ",
"  g h i j i i i k i i l g k h g i m i l k n i l i l l h h     ",
"  o p o o q r s t p q p o o p u o o o t o t o t v o t t o     ",
"  w w w w x w w w w x w w w w w w w w w w w x w w w w w w     ",
"  y y y z z y A y y z A A y y y y A B C y y y B A A y A C     ",
"  D E F G H H H G H I G H H G H H G F E H J H J J H H J H     ",
"  K L M N L K L O K M K N M K K K P L K K K K L K K K O K     ",
"  Q R S R Q Q S T Q U V T W R T T V S W X R U V Q X T Q S     ",
"  Y Z `  .Y Y ..Z +... . .Z ..Z Y  ...Z  .Y Y @.Z Z @... .    ",
"  #.#.#.$.#.$.$.$.#.$.$.$.#.$.#.#.$.#.#.#.$.$.#.$.$.$.$.#.    ",
"  %.&.%.*.&.%.%.%.%.%.%.=.*.%.%.%.%.%.&.&.%.%.%.%.%.%.%.%.    ",
"    -.;.>.,.-.>.;.,.'.;.;.'.;.>.>.'.).>.,.).>.).-.;.-.>.      ",
"      !.!.~.{.!.].~.^./.(.].].(.{.(._./.!.~.^.~.!.!.(.        "};
