/* XPM */
static char * close_pressed_xpm[] = {
"31 21 57 1",
" 	c None",
".	c #FD0000",
"+	c #FC0000",
"@	c #FD0100",
"#	c #F80000",
"$	c #F80100",
"%	c #F70000",
"&	c #F30000",
"*	c #F30001",
"=	c #EE0000",
"-	c #EF0000",
";	c #EA0000",
">	c #E90000",
",	c #E50000",
"'	c #E40000",
")	c #E40100",
"!	c #E00000",
"~	c #DF0000",
"{	c #DB0000",
"]	c #DA0000",
"^	c #D60000",
"/	c #D60001",
"(	c #D70000",
"_	c #D10000",
":	c #D20000",
"<	c #D10100",
"[	c #CE0000",
"}	c #CD0000",
"|	c #CE0100",
"1	c #CE0001",
"2	c #C90000",
"3	c #C90001",
"4	c #C80000",
"5	c #C40000",
"6	c #C40001",
"7	c #C50000",
"8	c #C40100",
"9	c #C00000",
"0	c #BF0000",
"a	c #BF0001",
"b	c #BB0000",
"c	c #BA0000",
"d	c #B60000",
"e	c #B50001",
"f	c #B50000",
"g	c #B10000",
"h	c #B00000",
"i	c #AC0000",
"j	c #AC0100",
"k	c #A70000",
"l	c #A80000",
"m	c #A70001",
"n	c #A30000",
"o	c #A20001",
"p	c #A20000",
"q	c #A30001",
"r	c #A20100",
"                               ",
"   ...+.+.+++.@+..++...+...    ",
"  #$#%%#$#######%###########   ",
" &&*&&&*&&&&&&&&&&&&&&&&&&&&&  ",
" ==-==-====-==-=-=====-===--=  ",
" ;;>>>>>>>>>>>>;>>>;>>>>>;>>>  ",
" ,',,,,'''',,',,,,)',,,''',,,  ",
" !!!!!!!!~!~!!!!!!~!!!!!!!~!!  ",
" {{{{{{{{{{{{{{{{{{{{{{{{{{{]  ",
" ^^^^^^^^^^^^^^^^/^^^(^^^(^^^  ",
" __________:_<::_::_:_::::_:_  ",
" [[}[[[[}}}[}[[[[[|[}[[}[}1[[  ",
" 2222222222222322224422424222  ",
" 5555555555675585555555555557  ",
" 99000000900099999999090000a9  ",
" bbbccbbcbbccbccbbbcbcbbbbcbb  ",
" dedfdffffdddddfdffffdeffdddd  ",
" ggggghgghhgggghgghgggggggggg  ",
" iiiiiiiiiiiiiiijiiiiiiiiiiii  ",
"  kklmkkkkkkklkkmkmkmkklkkkl   ",
"   nnnopnppqnnnnnnpnnpppppr    "};
