/* XPM */
static char * close_active_xpm[] = {
"31 21 2 1",
" 	c None",
".	c #101010",
"                               ",
"   ........................    ",
"  ..........................   ",
" ............................  ",
" ............................  ",
" ............................  ",
" ............................  ",
" ............................  ",
" ............................  ",
" ............................  ",
" ............................  ",
" ............................  ",
" ............................  ",
" ............................  ",
" ............................  ",
" ............................  ",
" ............................  ",
" ............................  ",
" ............................  ",
"  ..........................   ",
"   ........................    "};
