/* XPM */
static char * maximize_prelight_xpm[] = {
"30 21 41 1",
" 	c None",
".	c #7E7E7E",
"+	c #7F7F7F",
"@	c #7B7B7B",
"#	c #7C7C7C",
"$	c #787878",
"%	c #777777",
"&	c #757575",
"*	c #747474",
"=	c #717171",
"-	c #727272",
";	c #6E6E6E",
">	c #6F6F6F",
",	c #6B6B6B",
"'	c #6A6A6A",
")	c #686868",
"!	c #676767",
"~	c #656565",
"{	c #646464",
"]	c #626262",
"^	c #616161",
"/	c #5F5F5F",
"(	c #5E5E5E",
"_	c #5B5B5B",
":	c #5C5C5C",
"<	c #585858",
"[	c #595959",
"}	c #555555",
"|	c #565656",
"1	c #525252",
"2	c #515151",
"3	c #4E4E4E",
"4	c #4F4F4F",
"5	c #4B4B4B",
"6	c #4C4C4C",
"7	c #484848",
"8	c #494949",
"9	c #454545",
"0	c #444444",
"a	c #414141",
"b	c #424242",
"                              ",
"   ..+++.+..+.++..+......++   ",
"  @@#@@@@@@@@@@@@@@@@@@@@@@@  ",
" $$$$$$$$$$$%$$$$%$$$$$$$$$%% ",
" &&&&&*&*&*&&&&**&&******&*&& ",
" =-=====--=--=-=--====-=====- ",
" ;;;;;;;>;;;;;;;>;;;;>;;;;;>> ",
" ,,,,',,,,',,,,,,,,,,,,,,,,,, ",
" )!)!)))!!)!))!)))))))))))!)! ",
" ~{~~{{~{{~~{{{{~{{~{~{{{{{~{ ",
" ]^^]]^]^^^^]^^^^^]^]^^]^]^^^ ",
" ////////(///(//////////((/// ",
" __::::_:_:::__:::__:___:___: ",
" <[<[[<<[<<<<<<<[<<<[[<<<[<<< ",
" }}}}}}}}}}}}}}}}}}}}}}}}}}|} ",
" 1112111212121112211111211111 ",
" 3444443333344343434434444334 ",
" 5555565656555666656565665555 ",
" 7778877777777777787777777787 ",
"  99099999999909099999999999  ",
"   abaabbbaabaabbbbabbabbab   "};
