/* XPM */
static char * title_1_active_xpm[] = {
"8 30 26 1",
" 	c #000000",
".	c #404040",
"+	c #1F1F1F",
"@	c #1D1D1D",
"#	c #1C1C1C",
"$	c #1A1A1A",
"%	c #191919",
"&	c #181818",
"*	c #161616",
"=	c #151515",
"-	c #141414",
";	c #131313",
">	c #121212",
",	c #101010",
"'	c #0F0F0F",
")	c #0E0E0E",
"!	c #0C0C0C",
"~	c #0B0B0B",
"{	c #0A0A0A",
"]	c #090909",
"^	c #080808",
"/	c #070707",
"(	c #050505",
"_	c #040404",
":	c #030303",
"<	c #010101",
"        ",
"........",
"++++++++",
"++++++++",
"@@@@@@@@",
"########",
"$$$$$$$$",
"$$$$$$$$",
"%%%%%%%%",
"&&&&&&&&",
"********",
"========",
"--------",
";;;;;;;;",
">>>>>>>>",
",,,,,,,,",
",,,,,,,,",
"''''''''",
"))))))))",
"!!!!!!!!",
"~~~~~~~~",
"{{{{{{{{",
"]]]]]]]]",
"^^^^^^^^",
"////////",
"((((((((",
"________",
"::::::::",
"<<<<<<<<",
"<<<<<<<<"};
